<svg xmlns="http://www.w3.org/2000/svg" viewBox="0 0 448 512"><path fill="#232F3E" d="M257.2 162.7c-48.7 1.8-169.5 15.5-169.5 117.5 0 109.5 138.3 114 183.5 43.2 6.5 10.2 35.4 37.5 45.3 46.8l56.8-56S341 288.9 341 261.4V114.3C341 89 316.5 32 228.7 32 140.7 32 94 87 94 136.3l73.5 6.8c16.3-49.5 54.2-49.5 54.2-49.5 40.7-.1 35.5 29.8 35.5 69.1zm0 86.8c0 80-84.2 68-84.2 17.2 0-47.2 50.5-56.2 84.2-57.8v40.6zm136 163.5c-7.7 10-70 67-174.5 67S34.2 408.5 9.7 379c-6.8-7.7 1-11.3 5.5-8.3C88.5 415.2 203 488.5 387.7 401c7.5-3.7 13.3 2 5.5 12zm39.8 2.2c-6.5 15.8-16 26.8-21.3 31-5.2 4.3-8.7 1.3-6.5-3.8 7.7-18.8 20.2-55.8 14.5-80.8-3-9 4-8 9-7.5 5 .5 34.3 33.5 34.3 33.5-3.8 3.5-23.5 26.6-30 27.6z"/></svg>
